<svg width="24" height="24" viewBox="0 0 24 24" fill="none" xmlns="http://www.w3.org/2000/svg">
<g clip-path="url(#clip0_35548_42259)">
<path d="M5.828 17L8.364 14.464L6.95 13.05L2 18L6.95 22.95L8.364 21.536L5.828 19H13C15.1217 19 17.1566 18.1571 18.6569 16.6569C20.1571 15.1566 21 13.1217 21 11C21 8.87827 20.1571 6.84344 18.6569 5.34315C17.1566 3.84285 15.1217 3 13 3H4V5H13C14.5913 5 16.1174 5.63214 17.2426 6.75736C18.3679 7.88258 19 9.4087 19 11C19 12.5913 18.3679 14.1174 17.2426 15.2426C16.1174 16.3679 14.5913 17 13 17H5.828Z" fill="#272727"/>
</g>
<defs>
<clipPath id="clip0_35548_42259">
<rect width="24" height="24" fill="white" transform="matrix(1 0 0 -1 0 24)"/>
</clipPath>
</defs>
</svg>
