<svg width="60" height="60" viewBox="0 0 60 60" fill="none" xmlns="http://www.w3.org/2000/svg">
<path d="M34.6199 22.1311C34.4399 21.8524 34.2342 21.5696 34.0199 21.2738C33.1707 20.0746 32.1613 18.9973 31.0199 18.072C30.9981 18.0521 30.9752 18.0335 30.9513 18.0163L30.887 18.0034C30.7799 17.9305 30.7242 17.9005 30.7242 17.9005C30.6036 17.8299 30.4738 17.7765 30.3385 17.7419C30.2273 17.7172 30.1138 17.7043 29.9999 17.7034C29.9088 17.7036 29.8181 17.7152 29.7299 17.7377C29.5081 17.8 29.3011 17.9064 29.1213 18.0506C29.0527 18.0977 28.9713 18.162 28.8856 18.2349C27.5644 19.365 26.41 20.6768 25.457 22.1311C23.9946 24.3393 23.2109 26.9276 23.2028 29.5762C23.2023 31.3647 23.6268 33.1276 24.4413 34.7197L24.5742 34.9726C24.6299 35.0798 24.6942 35.1826 24.7542 35.2898C25.6411 36.6744 26.7205 37.9256 27.9599 39.006C28.757 39.6789 29.4899 40.249 30.1499 40.7205C30.5785 40.4076 31.007 40.0904 31.3885 39.7646C31.5984 39.5932 31.817 39.4174 31.997 39.2417L32.0356 39.2074C32.2242 39.0403 32.4042 38.8731 32.5799 38.7059L32.6656 38.6202C32.8199 38.4659 32.9784 38.3116 33.1242 38.1573C33.1756 38.1059 33.2227 38.0501 33.2699 37.9987L33.6384 37.6001L33.8656 37.3258C33.947 37.2272 34.037 37.1286 34.1142 37.03C34.2684 36.8371 34.4184 36.64 34.5427 36.4471C36.0279 34.4627 36.8389 32.0549 36.857 29.5762C36.854 26.9293 36.0763 24.3412 34.6199 22.1311Z" fill="#4E61FF"/>
<path d="M30.677 49.1387L30.0556 48.7615C26.0742 50.6946 21.8228 54.1021 19.5299 58.114C26.3366 60.6463 33.8299 60.628 40.6241 58.0626C38.1427 54.1236 34.6456 51.4575 30.677 49.1387Z" fill="#4E61FF"/>
<path d="M59.9998 30.0049C60 24.8314 58.6626 19.7457 56.1176 15.2417C53.5725 10.7377 49.9062 6.96838 45.4746 4.29975C41.0431 1.63111 35.9969 0.153846 30.826 0.0113805C25.6551 -0.131085 20.5353 1.06609 15.9635 3.48667C11.3918 5.90725 7.52358 9.46898 4.73444 13.826C1.9453 18.1831 0.330018 23.1874 0.0454385 28.353C-0.239141 33.5187 0.816651 38.6702 3.1103 43.3073C5.40395 47.9445 8.85752 51.9096 13.1357 54.8179C13.3542 54.475 13.7357 53.9049 14.0528 53.4377C14.37 52.9705 18.1542 47.6899 23.9399 44.5781C23.9399 44.5781 23.8028 44.4709 23.7342 44.4109L23.6142 44.3038C20.5285 41.6206 18.3942 38.6759 17.2414 35.4784C17.2414 35.4441 17.2157 35.4141 17.1985 35.3755C16.6024 33.7613 16.2654 32.063 16.1999 30.3435C16.1705 29.6191 16.1806 28.8937 16.2299 28.1704C16.2299 28.1446 16.2299 28.1189 16.2299 28.0975C16.2299 27.9132 16.2299 27.7975 16.2299 27.7975C16.3044 26.7866 16.4591 25.7833 16.6928 24.7971C17.7771 20.2965 20.3785 16.8847 22.9156 14.4758H22.8942C24.6151 12.8229 26.5546 11.4138 28.6585 10.2882H28.697C29.0958 10.0878 29.5365 9.98499 29.9827 9.98814C30.293 9.98529 30.6016 10.0346 30.8956 10.1339C30.8956 10.1339 31.4356 10.2196 33.3385 11.5355C33.6984 11.7755 34.097 12.0584 34.5342 12.3927C38.1041 15.1059 43.8341 20.8366 43.8341 29.602C43.8341 29.962 43.8341 30.3178 43.8041 30.6735C43.8041 30.815 43.7784 30.9521 43.7656 31.1021C43.7656 31.3122 43.7356 31.5308 43.7098 31.7322C43.6841 31.9337 43.6584 32.0965 43.6284 32.2766C43.5984 32.4566 43.5856 32.6066 43.5556 32.7652C43.5256 32.9238 43.4698 33.1938 43.4227 33.3824C43.397 33.5153 43.3713 33.6482 43.337 33.781C43.2813 34.0082 43.217 34.2097 43.1527 34.4497C43.1227 34.5611 43.097 34.6726 43.0627 34.7797C42.9856 35.0198 42.9041 35.2555 42.8184 35.4912C42.7884 35.5813 42.7584 35.6713 42.7241 35.757C42.6298 36.0099 42.527 36.2585 42.4198 36.5071L42.3298 36.7171C42.2141 36.9786 42.0856 37.24 41.957 37.4972C41.927 37.5529 41.9013 37.6087 41.8756 37.6644C41.7341 37.9301 41.5841 38.1959 41.447 38.4616C41.4213 38.5045 41.3998 38.5473 41.3741 38.5859C41.2113 38.8645 41.0398 39.1346 40.8598 39.4046L40.7999 39.4946C40.6156 39.7732 40.4184 40.0518 40.2127 40.3261C40.2009 40.3478 40.1865 40.3679 40.1699 40.3861C39.9599 40.669 39.7413 40.9476 39.5099 41.2434L39.4799 41.2777C39.2441 41.5606 38.9999 41.8392 38.747 42.1349C38.4899 42.4178 38.2241 42.6964 37.9456 42.9922C37.3741 43.5465 36.7784 44.0894 36.1584 44.6209L36.5613 44.8481C42.1327 48.0371 45.7455 53.1248 46.0713 53.6006C46.397 54.0764 46.7013 54.5522 46.9027 54.8865C50.9546 52.1273 54.2676 48.4159 56.5511 44.0778C58.8346 39.7397 60.0188 34.9074 59.9998 30.0049Z" fill="#4E61FF"/>
<path d="M30.0427 48.77L29.7256 48.5728C29.0013 48.1442 28.4656 47.8099 27.8827 47.4327C26.5168 46.545 25.1992 45.5849 23.9356 44.5566C18.1499 47.6899 14.3742 52.962 14.0485 53.4377C13.7228 53.9135 13.3499 54.475 13.1314 54.8179C14.1076 55.4853 15.1238 56.0922 16.1742 56.6353C17.2553 57.1995 18.3703 57.6963 19.5128 58.1226C21.8099 54.1107 26.0613 50.7031 30.0427 48.77Z" fill="white"/>
<path d="M30.0427 48.77L29.7256 48.5728C29.0013 48.1442 28.4656 47.8099 27.8827 47.4327C26.5168 46.545 25.1992 45.5849 23.9356 44.5566C18.1499 47.6899 14.3742 52.962 14.0485 53.4377C13.7228 53.9135 13.3499 54.475 13.1314 54.8179C14.0808 55.4617 15.0667 56.0499 16.0842 56.5795C17.194 57.1619 18.3391 57.6744 19.5128 58.114C21.8099 54.1107 26.0613 50.7031 30.0427 48.77Z" fill="url(#paint0_linear_35534_42217)"/>
<path d="M46.0327 53.5491C45.707 53.0734 42.107 47.977 36.5227 44.7966L36.1199 44.5695C36.7542 44.038 37.3499 43.4951 37.907 42.9407C38.1856 42.6664 38.4513 42.3878 38.7084 42.0835C38.9613 41.8048 39.2056 41.5262 39.4413 41.2262L39.4713 41.1919C39.6984 40.9133 39.9213 40.6347 40.1313 40.3347C40.148 40.3165 40.1623 40.2963 40.1741 40.2747C40.3799 40.0003 40.577 39.7217 40.7613 39.4431L40.8213 39.3531C41.0013 39.0831 41.1727 38.8131 41.3356 38.5344C41.3613 38.4959 41.3827 38.453 41.4084 38.4101C41.5584 38.1444 41.7084 37.8787 41.837 37.6129C41.8627 37.5572 41.8884 37.5015 41.9184 37.4457C42.047 37.1886 42.1756 36.9271 42.2913 36.6656L42.3813 36.4556C42.4884 36.207 42.5913 35.9584 42.6856 35.7055C42.7199 35.6198 42.7499 35.5298 42.7799 35.4398C42.8656 35.204 42.947 34.9683 43.0241 34.7283C43.0584 34.6211 43.0841 34.5097 43.1141 34.3982C43.1784 34.1753 43.2427 33.9696 43.2984 33.7296C43.3327 33.5967 43.3584 33.4638 43.3841 33.331C43.4313 33.1252 43.4784 32.9023 43.517 32.7137C43.5556 32.5251 43.5641 32.388 43.5898 32.2251C43.6156 32.0622 43.6498 31.8651 43.6713 31.6808C43.6927 31.4964 43.7098 31.2521 43.727 31.0507C43.727 30.9092 43.757 30.7721 43.7656 30.6221C43.7656 30.2663 43.7956 29.9105 43.7956 29.5505C43.7956 20.7851 38.0656 15.0544 34.4956 12.3413C34.067 12.0069 33.6385 11.724 33.2999 11.484C31.397 10.1681 30.857 10.0824 30.857 10.0824C30.5801 9.99342 30.2908 9.94858 29.9999 9.94953C29.5536 9.94639 29.113 10.0492 28.7142 10.2496H28.6756C26.5757 11.3954 24.6433 12.8247 22.9328 14.4972H22.9542C20.3999 16.919 17.7985 20.3308 16.7142 24.8313C16.4806 25.8176 16.3258 26.8209 16.2514 27.8317C16.2514 27.8317 16.2514 27.9474 16.2514 28.1318C16.2514 28.1318 16.2514 28.1789 16.2514 28.2046C16.202 28.9279 16.192 29.6534 16.2214 30.3777C16.2869 32.0973 16.6239 33.7956 17.2199 35.4098C17.2199 35.4484 17.2457 35.4784 17.2628 35.5127C18.4157 38.7102 20.5499 41.6548 23.6399 44.308L23.7599 44.4152C23.8285 44.4752 23.9656 44.5823 23.9656 44.5823C25.2292 45.6106 26.5468 46.5707 27.9128 47.4584C28.4956 47.8356 29.0313 48.1613 29.7556 48.5985L30.0728 48.7957L30.6942 49.1729C34.6627 51.4917 38.177 54.1578 40.6284 58.1054C42.8342 57.2725 44.9332 56.1804 46.8813 54.8522C46.6627 54.5007 46.3841 54.0635 46.0327 53.5491ZM34.1227 37.03C34.0456 37.1286 33.9556 37.2271 33.8742 37.3257L33.647 37.6L33.2785 37.9987C33.2313 38.0501 33.1842 38.1058 33.1327 38.1573C32.987 38.3116 32.8285 38.4659 32.6742 38.6202L32.5885 38.7059C32.4127 38.8731 32.2327 39.0402 32.0442 39.2074L32.0056 39.2417C31.8085 39.4174 31.607 39.5931 31.397 39.7646C31.0028 40.0903 30.587 40.4075 30.1585 40.7204C29.4985 40.2318 28.7656 39.6617 27.9685 39.0059C26.7278 37.9203 25.6483 36.6632 24.7628 35.2726C24.7028 35.1655 24.6385 35.0626 24.5828 34.9554L24.4285 34.694C23.614 33.1019 23.1895 31.3389 23.1899 29.5505C23.1984 26.9052 23.9805 24.3201 25.4399 22.1139C26.3929 20.6596 27.5472 19.3478 28.8685 18.2177C28.9542 18.1448 29.0356 18.0805 29.1042 18.0334C29.284 17.8892 29.4909 17.7828 29.7128 17.7205C29.8073 17.7023 29.9038 17.6965 29.9999 17.7033C30.1136 17.7029 30.2271 17.7144 30.3385 17.7376C30.4738 17.7722 30.6036 17.8256 30.7242 17.8962C30.7242 17.8962 30.7799 17.9262 30.887 17.9991L30.947 18.0334C30.9709 18.0506 30.9938 18.0693 31.0156 18.0891C32.157 19.0144 33.1664 20.0917 34.0156 21.2909C34.2299 21.5738 34.4442 21.8567 34.6156 22.1482C36.0703 24.3529 36.8494 26.9347 36.857 29.5762C36.8387 32.0495 36.0308 34.4523 34.5513 36.4342C34.427 36.6399 34.2856 36.8371 34.1227 37.03Z" fill="white"/>
<path opacity="0.7" d="M36.0299 44.5223L36.1199 44.5694C36.4027 44.3294 36.7242 44.0551 37.0627 43.7465C37.4913 43.3179 37.8427 43.0093 37.9199 42.9192C38.1984 42.6449 38.4641 42.3663 38.7213 42.062C38.9741 41.7834 39.2184 41.5048 39.4541 41.2047L39.4841 41.1705C39.7113 40.8919 39.9341 40.6133 40.1441 40.3132C40.1608 40.295 40.1752 40.2749 40.187 40.2532C40.3927 39.9789 40.5899 39.7003 40.7741 39.4217L40.8341 39.3317C41.0141 39.0616 41.1856 38.7916 41.3484 38.5173L41.4213 38.3887C41.5713 38.1229 41.7213 37.8572 41.8499 37.5915C41.8756 37.5357 41.9013 37.48 41.9313 37.4243C42.0598 37.1671 42.1884 36.9057 42.3041 36.6442L42.3941 36.4342C42.5013 36.1856 42.6041 35.937 42.6984 35.6841C42.7327 35.5984 42.7627 35.5083 42.7927 35.4183C42.8784 35.1826 42.9598 34.9468 43.037 34.7068C43.0713 34.5997 43.097 34.4882 43.127 34.3768C43.1913 34.1539 43.2556 33.9482 43.3113 33.7081C43.3456 33.5752 43.3713 33.4424 43.397 33.3095C43.4441 33.1038 43.4913 32.8809 43.5298 32.6923C43.5684 32.5037 43.577 32.3665 43.6027 32.2037C43.6284 32.0408 43.6627 31.8436 43.6841 31.6593C43.7056 31.475 43.7227 31.2307 43.7398 31.0292C43.7398 30.8878 43.7698 30.7506 43.7784 30.6006C43.7784 30.2448 43.8084 29.8891 43.8084 29.529C43.8084 18.7534 35.147 12.5641 32.4899 10.9225L30.947 18.0291C32.3514 19.2221 33.587 20.6007 34.6199 22.1267C36.0771 24.338 36.8548 26.9278 36.857 29.5762C36.8387 32.0495 36.0308 34.4523 34.5513 36.4342C34.4142 36.627 34.2642 36.8242 34.1227 37.0171C34.0456 37.1157 33.9556 37.2143 33.8742 37.3128L33.647 37.5872L33.2785 37.9858C33.2313 38.0372 33.1842 38.0929 33.1327 38.1444C32.987 38.2987 32.8285 38.453 32.6742 38.6073L32.5885 38.693C32.4127 38.8602 32.2327 39.0273 32.0442 39.1945L32.0056 39.2288C31.8085 39.4045 31.607 39.5803 31.397 39.7517C31.0028 40.0775 30.587 40.3947 30.1585 40.7075C30.6428 41.059 31.7785 41.8434 33.0127 42.6192C34.7142 43.7208 34.9713 43.9222 36.0299 44.5223Z" fill="url(#paint1_linear_35534_42217)"/>
<defs>
<linearGradient id="paint0_linear_35534_42217" x1="28.4656" y1="42.0063" x2="17.1537" y2="58.0398" gradientUnits="userSpaceOnUse">
<stop stop-color="#3750E2" stop-opacity="0.6"/>
<stop offset="0.19" stop-color="#3851E7" stop-opacity="0.57"/>
<stop offset="0.21" stop-color="#3248DB" stop-opacity="0.51"/>
<stop offset="0.26" stop-color="#2535C1" stop-opacity="0.37"/>
<stop offset="0.31" stop-color="#1924AB" stop-opacity="0.26"/>
<stop offset="0.37" stop-color="#101799" stop-opacity="0.16"/>
<stop offset="0.44" stop-color="#090D8C" stop-opacity="0.09"/>
<stop offset="0.53" stop-color="#040582" stop-opacity="0.04"/>
<stop offset="0.65" stop-color="#01017D" stop-opacity="0.01"/>
<stop offset="0.98" stop-color="#00007B" stop-opacity="0"/>
</linearGradient>
<linearGradient id="paint1_linear_35534_42217" x1="21.3214" y1="41.1105" x2="30.9354" y2="31.3219" gradientUnits="userSpaceOnUse">
<stop offset="0.05" stop-color="#3750E2" stop-opacity="0.6"/>
<stop offset="0.43" stop-color="#3851E7" stop-opacity="0.57"/>
<stop offset="0.44" stop-color="#364DE2" stop-opacity="0.55"/>
<stop offset="0.6" stop-color="#1F2CB6" stop-opacity="0.31"/>
<stop offset="0.74" stop-color="#0E1496" stop-opacity="0.14"/>
<stop offset="0.85" stop-color="#040582" stop-opacity="0.04"/>
<stop offset="0.92" stop-color="#00007B" stop-opacity="0"/>
</linearGradient>
</defs>
</svg>
